<?xml version="1.0" encoding="UTF-8" standalone="no"?>
<!DOCTYPE svg PUBLIC "-//W3C//DTD SVG 1.1//EN"
 "http://www.w3.org/Graphics/SVG/1.1/DTD/svg11.dtd">
<!-- Generated by graphviz version 2.47.0 (20210316.0004)
 -->
<!-- Title: dependencies Pages: 1 -->
<svg width="738pt" height="284pt"
 viewBox="0.00 0.00 738.00 284.00" xmlns="http://www.w3.org/2000/svg" xmlns:xlink="http://www.w3.org/1999/xlink">
<g id="graph0" class="graph" transform="scale(1 1) rotate(0) translate(4 280)">
<title>dependencies</title>
<polygon fill="white" stroke="transparent" points="-4,4 -4,-280 734,-280 734,4 -4,4"/>
<text text-anchor="start" x="344.01" y="-42.4" font-family="sans-serif" font-weight="bold" font-size="14.00">Legend</text>
<polygon fill="#ffffb3" stroke="transparent" points="131,-10 131,-30 151,-30 151,-10 131,-10"/>
<text text-anchor="start" x="154.63" y="-15.4" font-family="sans-serif" font-size="14.00"> &#160;Declarations</text>
<polygon fill="#8dd3c7" stroke="transparent" points="244,-10 244,-30 264,-30 264,-10 244,-10"/>
<text text-anchor="start" x="267.73" y="-15.4" font-family="sans-serif" font-size="14.00"> &#160;Module</text>
<polygon fill="#80b1d3" stroke="transparent" points="330,-10 330,-30 350,-30 350,-10 330,-10"/>
<text text-anchor="start" x="353.78" y="-15.4" font-family="sans-serif" font-size="14.00"> &#160;Bootstrap</text>
<polygon fill="#fdb462" stroke="transparent" points="427,-10 427,-30 447,-30 447,-10 427,-10"/>
<text text-anchor="start" x="450.67" y="-15.4" font-family="sans-serif" font-size="14.00"> &#160;Providers</text>
<polygon fill="#fb8072" stroke="transparent" points="523,-10 523,-30 543,-30 543,-10 523,-10"/>
<text text-anchor="start" x="546.73" y="-15.4" font-family="sans-serif" font-size="14.00"> &#160;Exports</text>
<g id="clust1" class="cluster">
<title>cluster_CoreModule</title>
<polygon fill="none" stroke="black" stroke-dasharray="1,5" points="8,-70 8,-268 722,-268 722,-70 8,-70"/>
</g>
<g id="clust4" class="cluster">
<title>cluster_CoreModule_exports</title>
<polygon fill="none" stroke="black" points="93,-208 93,-260 714,-260 714,-208 93,-208"/>
</g>
<g id="clust3" class="cluster">
<title>cluster_CoreModule_imports</title>
<polygon fill="none" stroke="black" points="376,-78 376,-130 714,-130 714,-78 376,-78"/>
</g>
<g id="clust6" class="cluster">
<title>cluster_CoreModule_providers</title>
<polygon fill="none" stroke="black" points="16,-78 16,-130 368,-130 368,-78 16,-78"/>
</g>
<!-- ChatModule -->
<g id="node1" class="node">
<title>ChatModule</title>
<polygon fill="#8dd3c7" stroke="black" points="705.99,-122 702.99,-126 681.99,-126 678.99,-122 620.01,-122 620.01,-86 705.99,-86 705.99,-122"/>
<text text-anchor="middle" x="663" y="-99.8" font-family="Times,serif" font-size="14.00">ChatModule</text>
</g>
<!-- CoreModule -->
<g id="node4" class="node">
<title>CoreModule</title>
<polygon fill="#8dd3c7" stroke="black" points="455.26,-187 452.26,-191 431.26,-191 428.26,-187 368.74,-187 368.74,-151 455.26,-151 455.26,-187"/>
<text text-anchor="middle" x="412" y="-164.8" font-family="Times,serif" font-size="14.00">CoreModule</text>
</g>
<!-- ChatModule&#45;&gt;CoreModule -->
<g id="edge1" class="edge">
<title>ChatModule&#45;&gt;CoreModule</title>
<path fill="none" stroke="black" d="M648.58,-122.11C648.58,-141.34 648.58,-169 648.58,-169 648.58,-169 465.39,-169 465.39,-169"/>
<polygon fill="black" stroke="black" points="465.39,-165.5 455.39,-169 465.39,-172.5 465.39,-165.5"/>
</g>
<!-- ProductsModule -->
<g id="node2" class="node">
<title>ProductsModule</title>
<polygon fill="#8dd3c7" stroke="black" points="602.04,-122 599.04,-126 578.04,-126 575.04,-122 493.96,-122 493.96,-86 602.04,-86 602.04,-122"/>
<text text-anchor="middle" x="548" y="-99.8" font-family="Times,serif" font-size="14.00">ProductsModule</text>
</g>
<!-- ProductsModule&#45;&gt;CoreModule -->
<g id="edge2" class="edge">
<title>ProductsModule&#45;&gt;CoreModule</title>
<path fill="none" stroke="black" d="M546.2,-122.03C546.2,-138.4 546.2,-160 546.2,-160 546.2,-160 465.57,-160 465.57,-160"/>
<polygon fill="black" stroke="black" points="465.57,-156.5 455.57,-160 465.57,-163.5 465.57,-156.5"/>
</g>
<!-- UsersModule -->
<g id="node3" class="node">
<title>UsersModule</title>
<polygon fill="#8dd3c7" stroke="black" points="475.92,-122 472.92,-126 451.92,-126 448.92,-122 384.08,-122 384.08,-86 475.92,-86 475.92,-122"/>
<text text-anchor="middle" x="430" y="-99.8" font-family="Times,serif" font-size="14.00">UsersModule</text>
</g>
<!-- UsersModule&#45;&gt;CoreModule -->
<g id="edge3" class="edge">
<title>UsersModule&#45;&gt;CoreModule</title>
<path fill="none" stroke="black" d="M419.84,-122.11C419.84,-122.11 419.84,-140.99 419.84,-140.99"/>
<polygon fill="black" stroke="black" points="416.34,-140.99 419.84,-150.99 423.34,-140.99 416.34,-140.99"/>
</g>
<!-- ChatModule  -->
<g id="node5" class="node">
<title>ChatModule </title>
<polygon fill="#fb8072" stroke="black" points="705.99,-252 616.01,-252 616.01,-216 705.99,-216 705.99,-252"/>
<text text-anchor="middle" x="661" y="-229.8" font-family="Times,serif" font-size="14.00">ChatModule </text>
</g>
<!-- CoreModule&#45;&gt;ChatModule  -->
<g id="edge4" class="edge">
<title>CoreModule&#45;&gt;ChatModule </title>
<path fill="none" stroke="black" stroke-dasharray="5,2" d="M455.49,-178C530.72,-178 677.17,-178 677.17,-178 677.17,-178 677.17,-205.97 677.17,-205.97"/>
<polygon fill="black" stroke="black" points="673.67,-205.97 677.17,-215.97 680.67,-205.97 673.67,-205.97"/>
</g>
<!-- GeradorUuidService  -->
<g id="node6" class="node">
<title>GeradorUuidService </title>
<polygon fill="#fb8072" stroke="black" points="598.83,-252 463.17,-252 463.17,-216 598.83,-216 598.83,-252"/>
<text text-anchor="middle" x="531" y="-229.8" font-family="Times,serif" font-size="14.00">GeradorUuidService </text>
</g>
<!-- CoreModule&#45;&gt;GeradorUuidService  -->
<g id="edge5" class="edge">
<title>CoreModule&#45;&gt;GeradorUuidService </title>
<path fill="none" stroke="black" stroke-dasharray="5,2" d="M450.17,-187.11C450.17,-206.34 450.17,-234 450.17,-234 450.17,-234 453.15,-234 453.15,-234"/>
<polygon fill="black" stroke="black" points="453.15,-237.5 463.15,-234 453.15,-230.5 453.15,-237.5"/>
</g>
<!-- LoggerService  -->
<g id="node7" class="node">
<title>LoggerService </title>
<polygon fill="#fb8072" stroke="black" points="444.91,-252 343.09,-252 343.09,-216 444.91,-216 444.91,-252"/>
<text text-anchor="middle" x="394" y="-229.8" font-family="Times,serif" font-size="14.00">LoggerService </text>
</g>
<!-- CoreModule&#45;&gt;LoggerService  -->
<g id="edge6" class="edge">
<title>CoreModule&#45;&gt;LoggerService </title>
<path fill="none" stroke="black" stroke-dasharray="5,2" d="M406.79,-187.11C406.79,-187.11 406.79,-205.99 406.79,-205.99"/>
<polygon fill="black" stroke="black" points="403.29,-205.99 406.79,-215.99 410.29,-205.99 403.29,-205.99"/>
</g>
<!-- ProductsModule  -->
<g id="node8" class="node">
<title>ProductsModule </title>
<polygon fill="#fb8072" stroke="black" points="325.04,-252 212.96,-252 212.96,-216 325.04,-216 325.04,-252"/>
<text text-anchor="middle" x="269" y="-229.8" font-family="Times,serif" font-size="14.00">ProductsModule </text>
</g>
<!-- CoreModule&#45;&gt;ProductsModule  -->
<g id="edge7" class="edge">
<title>CoreModule&#45;&gt;ProductsModule </title>
<path fill="none" stroke="black" stroke-dasharray="5,2" d="M368.71,-178C326.62,-178 269,-178 269,-178 269,-178 269,-205.97 269,-205.97"/>
<polygon fill="black" stroke="black" points="265.5,-205.97 269,-215.97 272.5,-205.97 265.5,-205.97"/>
</g>
<!-- UsersModule  -->
<g id="node9" class="node">
<title>UsersModule </title>
<polygon fill="#fb8072" stroke="black" points="195.42,-252 100.58,-252 100.58,-216 195.42,-216 195.42,-252"/>
<text text-anchor="middle" x="148" y="-229.8" font-family="Times,serif" font-size="14.00">UsersModule </text>
</g>
<!-- CoreModule&#45;&gt;UsersModule  -->
<g id="edge8" class="edge">
<title>CoreModule&#45;&gt;UsersModule </title>
<path fill="none" stroke="black" stroke-dasharray="5,2" d="M368.57,-169C303.12,-169 186.76,-169 186.76,-169 186.76,-169 186.76,-205.89 186.76,-205.89"/>
<polygon fill="black" stroke="black" points="183.26,-205.89 186.76,-215.89 190.26,-205.89 183.26,-205.89"/>
</g>
<!-- GeradorUuidService -->
<g id="node10" class="node">
<title>GeradorUuidService</title>
<ellipse fill="#fdb462" stroke="black" cx="269" cy="-104" rx="90.87" ry="18"/>
<text text-anchor="middle" x="269" y="-99.8" font-family="Times,serif" font-size="14.00">GeradorUuidService</text>
</g>
<!-- GeradorUuidService&#45;&gt;CoreModule -->
<g id="edge9" class="edge">
<title>GeradorUuidService&#45;&gt;CoreModule</title>
<path fill="none" stroke="black" d="M360.13,-104C369.95,-104 376.45,-104 376.45,-104 376.45,-104 376.45,-140.89 376.45,-140.89"/>
<polygon fill="black" stroke="black" points="372.95,-140.89 376.45,-150.89 379.95,-140.89 372.95,-140.89"/>
</g>
<!-- LoggerService -->
<g id="node11" class="node">
<title>LoggerService</title>
<ellipse fill="#fdb462" stroke="black" cx="92" cy="-104" rx="67.76" ry="18"/>
<text text-anchor="middle" x="92" y="-99.8" font-family="Times,serif" font-size="14.00">LoggerService</text>
</g>
<!-- LoggerService&#45;&gt;CoreModule -->
<g id="edge10" class="edge">
<title>LoggerService&#45;&gt;CoreModule</title>
<path fill="none" stroke="black" d="M130.21,-119.01C130.21,-135.59 130.21,-160 130.21,-160 130.21,-160 358.59,-160 358.59,-160"/>
<polygon fill="black" stroke="black" points="358.59,-163.5 368.59,-160 358.59,-156.5 358.59,-163.5"/>
</g>
</g>
</svg>
