<?xml version="1.0" encoding="UTF-8" standalone="no"?>
<!DOCTYPE svg PUBLIC "-//W3C//DTD SVG 1.1//EN"
 "http://www.w3.org/Graphics/SVG/1.1/DTD/svg11.dtd">
<!-- Generated by graphviz version 2.47.0 (20210316.0004)
 -->
<!-- Title: dependencies Pages: 1 -->
<svg width="1068pt" height="211pt"
 viewBox="0.00 0.00 1068.00 211.00" xmlns="http://www.w3.org/2000/svg" xmlns:xlink="http://www.w3.org/1999/xlink">
<g id="graph0" class="graph" transform="scale(1 1) rotate(0) translate(4 207)">
<title>dependencies</title>
<polygon fill="white" stroke="transparent" points="-4,4 -4,-207 1064,-207 1064,4 -4,4"/>
<text text-anchor="start" x="509.01" y="-42.4" font-family="sans-serif" font-weight="bold" font-size="14.00">Legend</text>
<polygon fill="#ffffb3" stroke="transparent" points="296,-10 296,-30 316,-30 316,-10 296,-10"/>
<text text-anchor="start" x="319.63" y="-15.4" font-family="sans-serif" font-size="14.00"> &#160;Declarations</text>
<polygon fill="#8dd3c7" stroke="transparent" points="409,-10 409,-30 429,-30 429,-10 409,-10"/>
<text text-anchor="start" x="432.73" y="-15.4" font-family="sans-serif" font-size="14.00"> &#160;Module</text>
<polygon fill="#80b1d3" stroke="transparent" points="495,-10 495,-30 515,-30 515,-10 495,-10"/>
<text text-anchor="start" x="518.78" y="-15.4" font-family="sans-serif" font-size="14.00"> &#160;Bootstrap</text>
<polygon fill="#fdb462" stroke="transparent" points="592,-10 592,-30 612,-30 612,-10 592,-10"/>
<text text-anchor="start" x="615.67" y="-15.4" font-family="sans-serif" font-size="14.00"> &#160;Providers</text>
<polygon fill="#fb8072" stroke="transparent" points="688,-10 688,-30 708,-30 708,-10 688,-10"/>
<text text-anchor="start" x="711.73" y="-15.4" font-family="sans-serif" font-size="14.00"> &#160;Exports</text>
<g id="clust1" class="cluster">
<title>cluster_UsersModule</title>
<polygon fill="none" stroke="black" stroke-dasharray="1,5" points="8,-70 8,-195 1052,-195 1052,-70 8,-70"/>
</g>
<g id="clust3" class="cluster">
<title>cluster_UsersModule_imports</title>
<polygon fill="none" stroke="black" points="942,-78 942,-130 1044,-130 1044,-78 942,-78"/>
</g>
<g id="clust6" class="cluster">
<title>cluster_UsersModule_providers</title>
<polygon fill="none" stroke="black" points="16,-78 16,-130 934,-130 934,-78 16,-78"/>
</g>
<!-- CoreModule -->
<g id="node1" class="node">
<title>CoreModule</title>
<polygon fill="#8dd3c7" stroke="black" points="1036.26,-122 1033.26,-126 1012.26,-126 1009.26,-122 949.74,-122 949.74,-86 1036.26,-86 1036.26,-122"/>
<text text-anchor="middle" x="993" y="-99.8" font-family="Times,serif" font-size="14.00">CoreModule</text>
</g>
<!-- UsersModule -->
<g id="node2" class="node">
<title>UsersModule</title>
<polygon fill="#8dd3c7" stroke="black" points="588.92,-187 585.92,-191 564.92,-191 561.92,-187 497.08,-187 497.08,-151 588.92,-151 588.92,-187"/>
<text text-anchor="middle" x="543" y="-164.8" font-family="Times,serif" font-size="14.00">UsersModule</text>
</g>
<!-- CoreModule&#45;&gt;UsersModule -->
<g id="edge1" class="edge">
<title>CoreModule&#45;&gt;UsersModule</title>
<path fill="none" stroke="black" d="M993,-122.29C993,-144.21 993,-178 993,-178 993,-178 599.04,-178 599.04,-178"/>
<polygon fill="black" stroke="black" points="599.04,-174.5 589.04,-178 599.04,-181.5 599.04,-174.5"/>
</g>
<!-- ConfigInit -->
<g id="node3" class="node">
<title>ConfigInit</title>
<ellipse fill="#fdb462" stroke="black" cx="875" cy="-104" rx="51.04" ry="18"/>
<text text-anchor="middle" x="875" y="-99.8" font-family="Times,serif" font-size="14.00">ConfigInit</text>
</g>
<!-- ConfigInit&#45;&gt;UsersModule -->
<g id="edge2" class="edge">
<title>ConfigInit&#45;&gt;UsersModule</title>
<path fill="none" stroke="black" d="M875,-122.11C875,-141.34 875,-169 875,-169 875,-169 598.81,-169 598.81,-169"/>
<polygon fill="black" stroke="black" points="598.81,-165.5 588.81,-169 598.81,-172.5 598.81,-165.5"/>
</g>
<!-- GeradorUuidService -->
<g id="node4" class="node">
<title>GeradorUuidService</title>
<ellipse fill="#fdb462" stroke="black" cx="715" cy="-104" rx="90.87" ry="18"/>
<text text-anchor="middle" x="715" y="-99.8" font-family="Times,serif" font-size="14.00">GeradorUuidService</text>
</g>
<!-- GeradorUuidService&#45;&gt;UsersModule -->
<g id="edge3" class="edge">
<title>GeradorUuidService&#45;&gt;UsersModule</title>
<path fill="none" stroke="black" d="M715,-122.03C715,-138.4 715,-160 715,-160 715,-160 599.09,-160 599.09,-160"/>
<polygon fill="black" stroke="black" points="599.09,-156.5 589.09,-160 599.09,-163.5 599.09,-156.5"/>
</g>
<!-- LoginService -->
<g id="node5" class="node">
<title>LoginService</title>
<ellipse fill="#fdb462" stroke="black" cx="543" cy="-104" rx="63.12" ry="18"/>
<text text-anchor="middle" x="543" y="-99.8" font-family="Times,serif" font-size="14.00">LoginService</text>
</g>
<!-- LoginService&#45;&gt;UsersModule -->
<g id="edge4" class="edge">
<title>LoginService&#45;&gt;UsersModule</title>
<path fill="none" stroke="black" d="M543,-122.11C543,-122.11 543,-140.99 543,-140.99"/>
<polygon fill="black" stroke="black" points="539.5,-140.99 543,-150.99 546.5,-140.99 539.5,-140.99"/>
</g>
<!-- TokenService -->
<g id="node6" class="node">
<title>TokenService</title>
<ellipse fill="#fdb462" stroke="black" cx="397" cy="-104" rx="64.83" ry="18"/>
<text text-anchor="middle" x="397" y="-99.8" font-family="Times,serif" font-size="14.00">TokenService</text>
</g>
<!-- TokenService&#45;&gt;UsersModule -->
<g id="edge5" class="edge">
<title>TokenService&#45;&gt;UsersModule</title>
<path fill="none" stroke="black" d="M397,-122.03C397,-138.4 397,-160 397,-160 397,-160 487.21,-160 487.21,-160"/>
<polygon fill="black" stroke="black" points="487.21,-163.5 497.21,-160 487.21,-156.5 487.21,-163.5"/>
</g>
<!-- UserService -->
<g id="node7" class="node">
<title>UserService</title>
<ellipse fill="#fdb462" stroke="black" cx="256" cy="-104" rx="58.44" ry="18"/>
<text text-anchor="middle" x="256" y="-99.8" font-family="Times,serif" font-size="14.00">UserService</text>
</g>
<!-- UserService&#45;&gt;UsersModule -->
<g id="edge6" class="edge">
<title>UserService&#45;&gt;UsersModule</title>
<path fill="none" stroke="black" d="M256,-122.11C256,-141.34 256,-169 256,-169 256,-169 487.21,-169 487.21,-169"/>
<polygon fill="black" stroke="black" points="487.21,-172.5 497.21,-169 487.21,-165.5 487.21,-172.5"/>
</g>
<!-- UserTypeService -->
<g id="node8" class="node">
<title>UserTypeService</title>
<ellipse fill="#fdb462" stroke="black" cx="102" cy="-104" rx="78.13" ry="18"/>
<text text-anchor="middle" x="102" y="-99.8" font-family="Times,serif" font-size="14.00">UserTypeService</text>
</g>
<!-- UserTypeService&#45;&gt;UsersModule -->
<g id="edge7" class="edge">
<title>UserTypeService&#45;&gt;UsersModule</title>
<path fill="none" stroke="black" d="M102,-122.29C102,-144.21 102,-178 102,-178 102,-178 487.05,-178 487.05,-178"/>
<polygon fill="black" stroke="black" points="487.05,-181.5 497.05,-178 487.05,-174.5 487.05,-181.5"/>
</g>
</g>
</svg>
