<?xml version="1.0" encoding="UTF-8" standalone="no"?>
<!DOCTYPE svg PUBLIC "-//W3C//DTD SVG 1.1//EN"
 "http://www.w3.org/Graphics/SVG/1.1/DTD/svg11.dtd">
<!-- Generated by graphviz version 2.47.0 (20210316.0004)
 -->
<!-- Title: dependencies Pages: 1 -->
<svg width="628pt" height="219pt"
 viewBox="0.00 0.00 628.00 219.00" xmlns="http://www.w3.org/2000/svg" xmlns:xlink="http://www.w3.org/1999/xlink">
<g id="graph0" class="graph" transform="scale(1 1) rotate(0) translate(4 215)">
<title>dependencies</title>
<polygon fill="white" stroke="transparent" points="-4,4 -4,-215 624,-215 624,4 -4,4"/>
<text text-anchor="start" x="289.01" y="-42.4" font-family="sans-serif" font-weight="bold" font-size="14.00">Legend</text>
<polygon fill="#ffffb3" stroke="transparent" points="76,-10 76,-30 96,-30 96,-10 76,-10"/>
<text text-anchor="start" x="99.63" y="-15.4" font-family="sans-serif" font-size="14.00"> &#160;Declarations</text>
<polygon fill="#8dd3c7" stroke="transparent" points="189,-10 189,-30 209,-30 209,-10 189,-10"/>
<text text-anchor="start" x="212.73" y="-15.4" font-family="sans-serif" font-size="14.00"> &#160;Module</text>
<polygon fill="#80b1d3" stroke="transparent" points="275,-10 275,-30 295,-30 295,-10 275,-10"/>
<text text-anchor="start" x="298.78" y="-15.4" font-family="sans-serif" font-size="14.00"> &#160;Bootstrap</text>
<polygon fill="#fdb462" stroke="transparent" points="372,-10 372,-30 392,-30 392,-10 372,-10"/>
<text text-anchor="start" x="395.67" y="-15.4" font-family="sans-serif" font-size="14.00"> &#160;Providers</text>
<polygon fill="#fb8072" stroke="transparent" points="468,-10 468,-30 488,-30 488,-10 468,-10"/>
<text text-anchor="start" x="491.73" y="-15.4" font-family="sans-serif" font-size="14.00"> &#160;Exports</text>
<g id="clust1" class="cluster">
<title>cluster_UsersModule</title>
<polygon fill="none" stroke="black" stroke-dasharray="1,5" points="8,-70 8,-203 612,-203 612,-70 8,-70"/>
</g>
<g id="clust3" class="cluster">
<title>cluster_UsersModule_imports</title>
<polygon fill="none" stroke="black" points="376,-78 376,-195 604,-195 604,-78 376,-78"/>
</g>
<g id="clust6" class="cluster">
<title>cluster_UsersModule_providers</title>
<polygon fill="none" stroke="black" points="16,-78 16,-130 368,-130 368,-78 16,-78"/>
</g>
<!-- ChatModule -->
<g id="node1" class="node">
<title>ChatModule</title>
<polygon fill="#8dd3c7" stroke="black" points="595.99,-122 592.99,-126 571.99,-126 568.99,-122 510.01,-122 510.01,-86 595.99,-86 595.99,-122"/>
<text text-anchor="middle" x="553" y="-99.8" font-family="Times,serif" font-size="14.00">ChatModule</text>
</g>
<!-- UsersModule -->
<g id="node3" class="node">
<title>UsersModule</title>
<polygon fill="#8dd3c7" stroke="black" points="479.92,-187 476.92,-191 455.92,-191 452.92,-187 388.08,-187 388.08,-151 479.92,-151 479.92,-187"/>
<text text-anchor="middle" x="434" y="-164.8" font-family="Times,serif" font-size="14.00">UsersModule</text>
</g>
<!-- ChatModule&#45;&gt;UsersModule -->
<g id="edge1" class="edge">
<title>ChatModule&#45;&gt;UsersModule</title>
<path fill="none" stroke="black" d="M553,-122.11C553,-141.34 553,-169 553,-169 553,-169 490.01,-169 490.01,-169"/>
<polygon fill="black" stroke="black" points="490.01,-165.5 480.01,-169 490.01,-172.5 490.01,-165.5"/>
</g>
<!-- ProductsModule -->
<g id="node2" class="node">
<title>ProductsModule</title>
<polygon fill="#8dd3c7" stroke="black" points="492.04,-122 489.04,-126 468.04,-126 465.04,-122 383.96,-122 383.96,-86 492.04,-86 492.04,-122"/>
<text text-anchor="middle" x="438" y="-99.8" font-family="Times,serif" font-size="14.00">ProductsModule</text>
</g>
<!-- ProductsModule&#45;&gt;UsersModule -->
<g id="edge2" class="edge">
<title>ProductsModule&#45;&gt;UsersModule</title>
<path fill="none" stroke="black" d="M418.76,-122.11C418.76,-122.11 418.76,-140.99 418.76,-140.99"/>
<polygon fill="black" stroke="black" points="415.26,-140.99 418.76,-150.99 422.26,-140.99 415.26,-140.99"/>
</g>
<!-- UsersModule&#45;&gt;UsersModule -->
<g id="edge3" class="edge">
<title>UsersModule&#45;&gt;UsersModule</title>
<path fill="none" stroke="black" d="M449.24,-150.76C449.24,-143.57 449.24,-137 449.24,-137 449.24,-137 485.99,-137 485.99,-137 485.99,-137 485.99,-205 485.99,-205 485.99,-205 434,-205 434,-205 434,-205 434,-197.42 434,-197.42"/>
<polygon fill="black" stroke="black" points="437.5,-197.42 434,-187.42 430.5,-197.42 437.5,-197.42"/>
</g>
<!-- GeradorUuidService -->
<g id="node4" class="node">
<title>GeradorUuidService</title>
<ellipse fill="#fdb462" stroke="black" cx="269" cy="-104" rx="90.87" ry="18"/>
<text text-anchor="middle" x="269" y="-99.8" font-family="Times,serif" font-size="14.00">GeradorUuidService</text>
</g>
<!-- GeradorUuidService&#45;&gt;UsersModule -->
<g id="edge4" class="edge">
<title>GeradorUuidService&#45;&gt;UsersModule</title>
<path fill="none" stroke="black" d="M269,-122.02C269,-139.37 269,-163 269,-163 269,-163 378.04,-163 378.04,-163"/>
<polygon fill="black" stroke="black" points="378.04,-166.5 388.04,-163 378.04,-159.5 378.04,-166.5"/>
</g>
<!-- LoggerService -->
<g id="node5" class="node">
<title>LoggerService</title>
<ellipse fill="#fdb462" stroke="black" cx="92" cy="-104" rx="67.76" ry="18"/>
<text text-anchor="middle" x="92" y="-99.8" font-family="Times,serif" font-size="14.00">LoggerService</text>
</g>
<!-- LoggerService&#45;&gt;UsersModule -->
<g id="edge5" class="edge">
<title>LoggerService&#45;&gt;UsersModule</title>
<path fill="none" stroke="black" d="M92,-122.28C92,-143.32 92,-175 92,-175 92,-175 378.23,-175 378.23,-175"/>
<polygon fill="black" stroke="black" points="378.23,-178.5 388.23,-175 378.23,-171.5 378.23,-178.5"/>
</g>
</g>
</svg>
