<?xml version="1.0" encoding="UTF-8" standalone="no"?>
<!DOCTYPE svg PUBLIC "-//W3C//DTD SVG 1.1//EN"
 "http://www.w3.org/Graphics/SVG/1.1/DTD/svg11.dtd">
<!-- Generated by graphviz version 2.47.0 (20210316.0004)
 -->
<!-- Title: dependencies Pages: 1 -->
<svg width="1404pt" height="287pt"
 viewBox="0.00 0.00 1404.00 287.00" xmlns="http://www.w3.org/2000/svg" xmlns:xlink="http://www.w3.org/1999/xlink">
<g id="graph0" class="graph" transform="scale(1 1) rotate(0) translate(4 283)">
<title>dependencies</title>
<polygon fill="white" stroke="transparent" points="-4,4 -4,-283 1400,-283 1400,4 -4,4"/>
<text text-anchor="start" x="677.01" y="-42.4" font-family="sans-serif" font-weight="bold" font-size="14.00">Legend</text>
<polygon fill="#ffffb3" stroke="transparent" points="464,-10 464,-30 484,-30 484,-10 464,-10"/>
<text text-anchor="start" x="487.63" y="-15.4" font-family="sans-serif" font-size="14.00"> &#160;Declarations</text>
<polygon fill="#8dd3c7" stroke="transparent" points="577,-10 577,-30 597,-30 597,-10 577,-10"/>
<text text-anchor="start" x="600.73" y="-15.4" font-family="sans-serif" font-size="14.00"> &#160;Module</text>
<polygon fill="#80b1d3" stroke="transparent" points="663,-10 663,-30 683,-30 683,-10 663,-10"/>
<text text-anchor="start" x="686.78" y="-15.4" font-family="sans-serif" font-size="14.00"> &#160;Bootstrap</text>
<polygon fill="#fdb462" stroke="transparent" points="760,-10 760,-30 780,-30 780,-10 760,-10"/>
<text text-anchor="start" x="783.67" y="-15.4" font-family="sans-serif" font-size="14.00"> &#160;Providers</text>
<polygon fill="#fb8072" stroke="transparent" points="856,-10 856,-30 876,-30 876,-10 856,-10"/>
<text text-anchor="start" x="879.73" y="-15.4" font-family="sans-serif" font-size="14.00"> &#160;Exports</text>
<g id="clust1" class="cluster">
<title>cluster_AppModule</title>
<polygon fill="none" stroke="black" stroke-dasharray="1,5" points="950,-70 950,-271 1086,-271 1086,-70 950,-70"/>
</g>
<g id="clust3" class="cluster">
<title>cluster_AppModule_imports</title>
<polygon fill="none" stroke="black" points="958,-78 958,-206 1066,-206 1066,-78 958,-78"/>
</g>
<g id="clust7" class="cluster">
<title>cluster_CoreModule</title>
<polygon fill="none" stroke="black" stroke-dasharray="1,5" points="1094,-146 1094,-214 1388,-214 1388,-146 1094,-146"/>
</g>
<g id="clust10" class="cluster">
<title>cluster_CoreModule_exports</title>
<polygon fill="none" stroke="black" points="1262,-154 1262,-206 1380,-206 1380,-154 1262,-154"/>
</g>
<g id="clust12" class="cluster">
<title>cluster_CoreModule_providers</title>
<polygon fill="none" stroke="black" points="1102,-154 1102,-206 1254,-206 1254,-154 1102,-154"/>
</g>
<g id="clust13" class="cluster">
<title>cluster_UsersModule</title>
<polygon fill="none" stroke="black" stroke-dasharray="1,5" points="8,-70 8,-138 942,-138 942,-70 8,-70"/>
</g>
<g id="clust18" class="cluster">
<title>cluster_UsersModule_providers</title>
<polygon fill="none" stroke="black" points="16,-78 16,-130 934,-130 934,-78 16,-78"/>
</g>
<!-- CoreModule -->
<g id="node1" class="node">
<title>CoreModule</title>
<polygon fill="#8dd3c7" stroke="black" points="1058.26,-122 1055.26,-126 1034.26,-126 1031.26,-122 971.74,-122 971.74,-86 1058.26,-86 1058.26,-122"/>
<text text-anchor="middle" x="1015" y="-99.8" font-family="Times,serif" font-size="14.00">CoreModule</text>
</g>
<!-- UsersModule -->
<g id="node2" class="node">
<title>UsersModule</title>
<polygon fill="#8dd3c7" stroke="black" points="1057.92,-198 1054.92,-202 1033.92,-202 1030.92,-198 966.08,-198 966.08,-162 1057.92,-162 1057.92,-198"/>
<text text-anchor="middle" x="1012" y="-175.8" font-family="Times,serif" font-size="14.00">UsersModule</text>
</g>
<!-- CoreModule&#45;&gt;UsersModule -->
<g id="edge5" class="edge">
<title>CoreModule&#45;&gt;UsersModule</title>
<path fill="none" stroke="black" d="M1014.66,-122.01C1014.66,-122.01 1014.66,-151.85 1014.66,-151.85"/>
<polygon fill="black" stroke="black" points="1011.16,-151.85 1014.66,-161.85 1018.16,-151.85 1011.16,-151.85"/>
</g>
<!-- AppModule -->
<g id="node3" class="node">
<title>AppModule</title>
<polygon fill="#8dd3c7" stroke="black" points="1065.66,-263 1062.66,-267 1041.66,-267 1038.66,-263 982.34,-263 982.34,-227 1065.66,-227 1065.66,-263"/>
<text text-anchor="middle" x="1024" y="-240.8" font-family="Times,serif" font-size="14.00">AppModule</text>
</g>
<!-- CoreModule&#45;&gt;AppModule -->
<g id="edge1" class="edge">
<title>CoreModule&#45;&gt;AppModule</title>
<path fill="none" stroke="black" d="M1058.41,-113C1060.71,-113 1062.1,-113 1062.1,-113 1062.1,-113 1062.1,-216.92 1062.1,-216.92"/>
<polygon fill="black" stroke="black" points="1058.6,-216.92 1062.1,-226.92 1065.6,-216.92 1058.6,-216.92"/>
</g>
<!-- LoggerService  -->
<g id="node4" class="node">
<title>LoggerService </title>
<polygon fill="#fb8072" stroke="black" points="1371.91,-198 1270.09,-198 1270.09,-162 1371.91,-162 1371.91,-198"/>
<text text-anchor="middle" x="1321" y="-175.8" font-family="Times,serif" font-size="14.00">LoggerService </text>
</g>
<!-- CoreModule&#45;&gt;LoggerService  -->
<g id="edge3" class="edge">
<title>CoreModule&#45;&gt;LoggerService </title>
<path fill="none" stroke="black" stroke-dasharray="5,2" d="M1058.52,-95C1143,-95 1321,-95 1321,-95 1321,-95 1321,-151.97 1321,-151.97"/>
<polygon fill="black" stroke="black" points="1317.5,-151.97 1321,-161.97 1324.5,-151.97 1317.5,-151.97"/>
</g>
<!-- UsersModule&#45;&gt;AppModule -->
<g id="edge2" class="edge">
<title>UsersModule&#45;&gt;AppModule</title>
<path fill="none" stroke="black" d="M1019.94,-198.11C1019.94,-198.11 1019.94,-216.99 1019.94,-216.99"/>
<polygon fill="black" stroke="black" points="1016.44,-216.99 1019.94,-226.99 1023.44,-216.99 1016.44,-216.99"/>
</g>
<!-- LoggerService -->
<g id="node5" class="node">
<title>LoggerService</title>
<ellipse fill="#fdb462" stroke="black" cx="1178" cy="-180" rx="67.76" ry="18"/>
<text text-anchor="middle" x="1178" y="-175.8" font-family="Times,serif" font-size="14.00">LoggerService</text>
</g>
<!-- LoggerService&#45;&gt;CoreModule -->
<g id="edge4" class="edge">
<title>LoggerService&#45;&gt;CoreModule</title>
<path fill="none" stroke="black" d="M1178,-161.99C1178,-139.51 1178,-104 1178,-104 1178,-104 1068.68,-104 1068.68,-104"/>
<polygon fill="black" stroke="black" points="1068.68,-100.5 1058.68,-104 1068.68,-107.5 1068.68,-100.5"/>
</g>
<!-- ConfigInit -->
<g id="node6" class="node">
<title>ConfigInit</title>
<ellipse fill="#fdb462" stroke="black" cx="875" cy="-104" rx="51.04" ry="18"/>
<text text-anchor="middle" x="875" y="-99.8" font-family="Times,serif" font-size="14.00">ConfigInit</text>
</g>
<!-- ConfigInit&#45;&gt;UsersModule -->
<g id="edge6" class="edge">
<title>ConfigInit&#45;&gt;UsersModule</title>
<path fill="none" stroke="black" d="M875,-122.17C875,-141.09 875,-168 875,-168 875,-168 956,-168 956,-168"/>
<polygon fill="black" stroke="black" points="956,-171.5 966,-168 956,-164.5 956,-171.5"/>
</g>
<!-- GeradorUuidService -->
<g id="node7" class="node">
<title>GeradorUuidService</title>
<ellipse fill="#fdb462" stroke="black" cx="715" cy="-104" rx="90.87" ry="18"/>
<text text-anchor="middle" x="715" y="-99.8" font-family="Times,serif" font-size="14.00">GeradorUuidService</text>
</g>
<!-- GeradorUuidService&#45;&gt;UsersModule -->
<g id="edge7" class="edge">
<title>GeradorUuidService&#45;&gt;UsersModule</title>
<path fill="none" stroke="black" d="M715,-122.13C715,-142.57 715,-173 715,-173 715,-173 956.24,-173 956.24,-173"/>
<polygon fill="black" stroke="black" points="956.24,-176.5 966.24,-173 956.24,-169.5 956.24,-176.5"/>
</g>
<!-- LoginService -->
<g id="node8" class="node">
<title>LoginService</title>
<ellipse fill="#fdb462" stroke="black" cx="543" cy="-104" rx="63.12" ry="18"/>
<text text-anchor="middle" x="543" y="-99.8" font-family="Times,serif" font-size="14.00">LoginService</text>
</g>
<!-- LoginService&#45;&gt;UsersModule -->
<g id="edge8" class="edge">
<title>LoginService&#45;&gt;UsersModule</title>
<path fill="none" stroke="black" d="M543,-122.29C543,-144.21 543,-178 543,-178 543,-178 956.18,-178 956.18,-178"/>
<polygon fill="black" stroke="black" points="956.18,-181.5 966.18,-178 956.18,-174.5 956.18,-181.5"/>
</g>
<!-- TokenService -->
<g id="node9" class="node">
<title>TokenService</title>
<ellipse fill="#fdb462" stroke="black" cx="397" cy="-104" rx="64.83" ry="18"/>
<text text-anchor="middle" x="397" y="-99.8" font-family="Times,serif" font-size="14.00">TokenService</text>
</g>
<!-- TokenService&#45;&gt;UsersModule -->
<g id="edge9" class="edge">
<title>TokenService&#45;&gt;UsersModule</title>
<path fill="none" stroke="black" d="M397,-122.32C397,-145.66 397,-183 397,-183 397,-183 956.28,-183 956.28,-183"/>
<polygon fill="black" stroke="black" points="956.28,-186.5 966.28,-183 956.28,-179.5 956.28,-186.5"/>
</g>
<!-- UserService -->
<g id="node10" class="node">
<title>UserService</title>
<ellipse fill="#fdb462" stroke="black" cx="256" cy="-104" rx="58.44" ry="18"/>
<text text-anchor="middle" x="256" y="-99.8" font-family="Times,serif" font-size="14.00">UserService</text>
</g>
<!-- UserService&#45;&gt;UsersModule -->
<g id="edge10" class="edge">
<title>UserService&#45;&gt;UsersModule</title>
<path fill="none" stroke="black" d="M256,-122.23C256,-146.93 256,-188 256,-188 256,-188 956.13,-188 956.13,-188"/>
<polygon fill="black" stroke="black" points="956.13,-191.5 966.13,-188 956.13,-184.5 956.13,-191.5"/>
</g>
<!-- UserTypeService -->
<g id="node11" class="node">
<title>UserTypeService</title>
<ellipse fill="#fdb462" stroke="black" cx="102" cy="-104" rx="78.13" ry="18"/>
<text text-anchor="middle" x="102" y="-99.8" font-family="Times,serif" font-size="14.00">UserTypeService</text>
</g>
<!-- UserTypeService&#45;&gt;UsersModule -->
<g id="edge11" class="edge">
<title>UserTypeService&#45;&gt;UsersModule</title>
<path fill="none" stroke="black" d="M102,-122.01C102,-148.02 102,-193 102,-193 102,-193 956.25,-193 956.25,-193"/>
<polygon fill="black" stroke="black" points="956.25,-196.5 966.25,-193 956.25,-189.5 956.25,-196.5"/>
</g>
</g>
</svg>
