<?xml version="1.0" encoding="UTF-8" standalone="no"?>
<!DOCTYPE svg PUBLIC "-//W3C//DTD SVG 1.1//EN"
 "http://www.w3.org/Graphics/SVG/1.1/DTD/svg11.dtd">
<!-- Generated by graphviz version 2.47.0 (20210316.0004)
 -->
<!-- Title: dependencies Pages: 1 -->
<svg width="504pt" height="211pt"
 viewBox="0.00 0.00 504.00 211.00" xmlns="http://www.w3.org/2000/svg" xmlns:xlink="http://www.w3.org/1999/xlink">
<g id="graph0" class="graph" transform="scale(1 1) rotate(0) translate(4 207)">
<title>dependencies</title>
<polygon fill="white" stroke="transparent" points="-4,4 -4,-207 500,-207 500,4 -4,4"/>
<text text-anchor="start" x="227.01" y="-42.4" font-family="sans-serif" font-weight="bold" font-size="14.00">Legend</text>
<polygon fill="#ffffb3" stroke="transparent" points="14,-10 14,-30 34,-30 34,-10 14,-10"/>
<text text-anchor="start" x="37.63" y="-15.4" font-family="sans-serif" font-size="14.00"> &#160;Declarations</text>
<polygon fill="#8dd3c7" stroke="transparent" points="127,-10 127,-30 147,-30 147,-10 127,-10"/>
<text text-anchor="start" x="150.73" y="-15.4" font-family="sans-serif" font-size="14.00"> &#160;Module</text>
<polygon fill="#80b1d3" stroke="transparent" points="213,-10 213,-30 233,-30 233,-10 213,-10"/>
<text text-anchor="start" x="236.78" y="-15.4" font-family="sans-serif" font-size="14.00"> &#160;Bootstrap</text>
<polygon fill="#fdb462" stroke="transparent" points="310,-10 310,-30 330,-30 330,-10 310,-10"/>
<text text-anchor="start" x="333.67" y="-15.4" font-family="sans-serif" font-size="14.00"> &#160;Providers</text>
<polygon fill="#fb8072" stroke="transparent" points="406,-10 406,-30 426,-30 426,-10 406,-10"/>
<text text-anchor="start" x="429.73" y="-15.4" font-family="sans-serif" font-size="14.00"> &#160;Exports</text>
<g id="clust1" class="cluster">
<title>cluster_DashboardRouterModule</title>
<polygon fill="none" stroke="black" stroke-dasharray="1,5" points="73.5,-70 73.5,-195 422.5,-195 422.5,-70 73.5,-70"/>
</g>
<g id="clust6" class="cluster">
<title>cluster_DashboardRouterModule_providers</title>
<polygon fill="none" stroke="black" points="81.5,-78 81.5,-130 414.5,-130 414.5,-78 81.5,-78"/>
</g>
<!-- InterceptorService -->
<g id="node1" class="node">
<title>InterceptorService</title>
<ellipse fill="#fdb462" stroke="black" cx="324.5" cy="-104" rx="82.2" ry="18"/>
<text text-anchor="middle" x="324.5" y="-99.8" font-family="Times,serif" font-size="14.00">InterceptorService</text>
</g>
<!-- DashboardRouterModule -->
<g id="node3" class="node">
<title>DashboardRouterModule</title>
<polygon fill="#8dd3c7" stroke="black" points="321.79,-187 318.79,-191 297.79,-191 294.79,-187 163.21,-187 163.21,-151 321.79,-151 321.79,-187"/>
<text text-anchor="middle" x="242.5" y="-164.8" font-family="Times,serif" font-size="14.00">DashboardRouterModule</text>
</g>
<!-- InterceptorService&#45;&gt;DashboardRouterModule -->
<g id="edge1" class="edge">
<title>InterceptorService&#45;&gt;DashboardRouterModule</title>
<path fill="none" stroke="black" d="M281.9,-119.73C281.9,-119.73 281.9,-140.65 281.9,-140.65"/>
<polygon fill="black" stroke="black" points="278.4,-140.65 281.9,-150.65 285.4,-140.65 278.4,-140.65"/>
</g>
<!-- LoaderService -->
<g id="node2" class="node">
<title>LoaderService</title>
<ellipse fill="#fdb462" stroke="black" cx="156.5" cy="-104" rx="67.17" ry="18"/>
<text text-anchor="middle" x="156.5" y="-99.8" font-family="Times,serif" font-size="14.00">LoaderService</text>
</g>
<!-- LoaderService&#45;&gt;DashboardRouterModule -->
<g id="edge2" class="edge">
<title>LoaderService&#45;&gt;DashboardRouterModule</title>
<path fill="none" stroke="black" d="M193.59,-119.08C193.59,-119.08 193.59,-140.76 193.59,-140.76"/>
<polygon fill="black" stroke="black" points="190.1,-140.76 193.59,-150.76 197.1,-140.76 190.1,-140.76"/>
</g>
</g>
</svg>
