<?xml version="1.0" encoding="UTF-8" standalone="no"?>
<!DOCTYPE svg PUBLIC "-//W3C//DTD SVG 1.1//EN"
 "http://www.w3.org/Graphics/SVG/1.1/DTD/svg11.dtd">
<!-- Generated by graphviz version 2.47.0 (20210316.0004)
 -->
<!-- Title: dependencies Pages: 1 -->
<svg width="1384pt" height="284pt"
 viewBox="0.00 0.00 1384.00 284.00" xmlns="http://www.w3.org/2000/svg" xmlns:xlink="http://www.w3.org/1999/xlink">
<g id="graph0" class="graph" transform="scale(1 1) rotate(0) translate(4 280)">
<title>dependencies</title>
<polygon fill="white" stroke="transparent" points="-4,4 -4,-280 1380,-280 1380,4 -4,4"/>
<text text-anchor="start" x="667.01" y="-42.4" font-family="sans-serif" font-weight="bold" font-size="14.00">Legend</text>
<polygon fill="#ffffb3" stroke="transparent" points="454,-10 454,-30 474,-30 474,-10 454,-10"/>
<text text-anchor="start" x="477.63" y="-15.4" font-family="sans-serif" font-size="14.00"> &#160;Declarations</text>
<polygon fill="#8dd3c7" stroke="transparent" points="567,-10 567,-30 587,-30 587,-10 567,-10"/>
<text text-anchor="start" x="590.73" y="-15.4" font-family="sans-serif" font-size="14.00"> &#160;Module</text>
<polygon fill="#80b1d3" stroke="transparent" points="653,-10 653,-30 673,-30 673,-10 653,-10"/>
<text text-anchor="start" x="676.78" y="-15.4" font-family="sans-serif" font-size="14.00"> &#160;Bootstrap</text>
<polygon fill="#fdb462" stroke="transparent" points="750,-10 750,-30 770,-30 770,-10 750,-10"/>
<text text-anchor="start" x="773.67" y="-15.4" font-family="sans-serif" font-size="14.00"> &#160;Providers</text>
<polygon fill="#fb8072" stroke="transparent" points="846,-10 846,-30 866,-30 866,-10 846,-10"/>
<text text-anchor="start" x="869.73" y="-15.4" font-family="sans-serif" font-size="14.00"> &#160;Exports</text>
<g id="clust1" class="cluster">
<title>cluster_ThemeModule</title>
<polygon fill="none" stroke="black" stroke-dasharray="1,5" points="8,-70 8,-268 1368,-268 1368,-70 8,-70"/>
</g>
<g id="clust2" class="cluster">
<title>cluster_ThemeModule_declarations</title>
<polygon fill="none" stroke="black" points="34,-78 34,-130 1349,-130 1349,-78 34,-78"/>
</g>
<g id="clust12" class="cluster">
<title>cluster_ThemeModule_exports</title>
<polygon fill="none" stroke="black" points="16,-208 16,-260 1360,-260 1360,-208 16,-208"/>
</g>
<!-- DashboardLayoutComponent -->
<g id="node1" class="node">
<title>DashboardLayoutComponent</title>
<polygon fill="#ffffb3" stroke="black" points="1340.63,-122 1159.37,-122 1159.37,-86 1340.63,-86 1340.63,-122"/>
<text text-anchor="middle" x="1250" y="-99.8" font-family="Times,serif" font-size="14.00">DashboardLayoutComponent</text>
</g>
<!-- ThemeModule -->
<g id="node9" class="node">
<title>ThemeModule</title>
<polygon fill="#8dd3c7" stroke="black" points="624.42,-187 621.42,-191 600.42,-191 597.42,-187 525.58,-187 525.58,-151 624.42,-151 624.42,-187"/>
<text text-anchor="middle" x="575" y="-164.8" font-family="Times,serif" font-size="14.00">ThemeModule</text>
</g>
<!-- DashboardLayoutComponent&#45;&gt;ThemeModule -->
<g id="edge1" class="edge">
<title>DashboardLayoutComponent&#45;&gt;ThemeModule</title>
<path fill="none" stroke="black" d="M1162.81,-122.22C1162.81,-140.83 1162.81,-167 1162.81,-167 1162.81,-167 634.36,-167 634.36,-167"/>
<polygon fill="black" stroke="black" points="634.36,-163.5 624.36,-167 634.36,-170.5 634.36,-163.5"/>
</g>
<!-- FooterComponent -->
<g id="node2" class="node">
<title>FooterComponent</title>
<polygon fill="#ffffb3" stroke="black" points="1140.88,-122 1023.12,-122 1023.12,-86 1140.88,-86 1140.88,-122"/>
<text text-anchor="middle" x="1082" y="-99.8" font-family="Times,serif" font-size="14.00">FooterComponent</text>
</g>
<!-- FooterComponent&#45;&gt;ThemeModule -->
<g id="edge2" class="edge">
<title>FooterComponent&#45;&gt;ThemeModule</title>
<path fill="none" stroke="black" d="M1103.06,-122.02C1103.06,-139.37 1103.06,-163 1103.06,-163 1103.06,-163 634.68,-163 634.68,-163"/>
<polygon fill="black" stroke="black" points="634.68,-159.5 624.68,-163 634.68,-166.5 634.68,-159.5"/>
</g>
<!-- HeaderDashboardComponent -->
<g id="node3" class="node">
<title>HeaderDashboardComponent</title>
<polygon fill="#ffffb3" stroke="black" points="1005.38,-122 822.62,-122 822.62,-86 1005.38,-86 1005.38,-122"/>
<text text-anchor="middle" x="914" y="-99.8" font-family="Times,serif" font-size="14.00">HeaderDashboardComponent</text>
</g>
<!-- HeaderDashboardComponent&#45;&gt;ThemeModule -->
<g id="edge3" class="edge">
<title>HeaderDashboardComponent&#45;&gt;ThemeModule</title>
<path fill="none" stroke="black" d="M944.48,-122.01C944.48,-138.05 944.48,-159 944.48,-159 944.48,-159 634.45,-159 634.45,-159"/>
<polygon fill="black" stroke="black" points="634.45,-155.5 624.45,-159 634.45,-162.5 634.45,-155.5"/>
</g>
<!-- HeaderVisitorComponent -->
<g id="node4" class="node">
<title>HeaderVisitorComponent</title>
<polygon fill="#ffffb3" stroke="black" points="804.13,-122 643.87,-122 643.87,-86 804.13,-86 804.13,-122"/>
<text text-anchor="middle" x="724" y="-99.8" font-family="Times,serif" font-size="14.00">HeaderVisitorComponent</text>
</g>
<!-- HeaderVisitorComponent&#45;&gt;ThemeModule -->
<g id="edge4" class="edge">
<title>HeaderVisitorComponent&#45;&gt;ThemeModule</title>
<path fill="none" stroke="black" d="M697.23,-122.12C697.23,-136.78 697.23,-155 697.23,-155 697.23,-155 634.36,-155 634.36,-155"/>
<polygon fill="black" stroke="black" points="634.36,-151.5 624.36,-155 634.36,-158.5 634.36,-151.5"/>
</g>
<!-- MenuComponent -->
<g id="node5" class="node">
<title>MenuComponent</title>
<polygon fill="#ffffb3" stroke="black" points="625.99,-122 512.01,-122 512.01,-86 625.99,-86 625.99,-122"/>
<text text-anchor="middle" x="569" y="-99.8" font-family="Times,serif" font-size="14.00">MenuComponent</text>
</g>
<!-- MenuComponent&#45;&gt;ThemeModule -->
<g id="edge5" class="edge">
<title>MenuComponent&#45;&gt;ThemeModule</title>
<path fill="none" stroke="black" d="M575,-122.11C575,-122.11 575,-140.99 575,-140.99"/>
<polygon fill="black" stroke="black" points="571.5,-140.99 575,-150.99 578.5,-140.99 571.5,-140.99"/>
</g>
<!-- MenuLateralComponent -->
<g id="node6" class="node">
<title>MenuLateralComponent</title>
<polygon fill="#ffffb3" stroke="black" points="493.63,-122 340.37,-122 340.37,-86 493.63,-86 493.63,-122"/>
<text text-anchor="middle" x="417" y="-99.8" font-family="Times,serif" font-size="14.00">MenuLateralComponent</text>
</g>
<!-- MenuLateralComponent&#45;&gt;ThemeModule -->
<g id="edge6" class="edge">
<title>MenuLateralComponent&#45;&gt;ThemeModule</title>
<path fill="none" stroke="black" d="M438.44,-122.24C438.44,-137.57 438.44,-157 438.44,-157 438.44,-157 515.7,-157 515.7,-157"/>
<polygon fill="black" stroke="black" points="515.7,-160.5 525.7,-157 515.7,-153.5 515.7,-160.5"/>
</g>
<!-- PhoneDirective -->
<g id="node7" class="node">
<title>PhoneDirective</title>
<polygon fill="#ffffb3" stroke="black" points="322.58,-122 219.42,-122 219.42,-86 322.58,-86 322.58,-122"/>
<text text-anchor="middle" x="271" y="-99.8" font-family="Times,serif" font-size="14.00">PhoneDirective</text>
</g>
<!-- PhoneDirective&#45;&gt;ThemeModule -->
<g id="edge7" class="edge">
<title>PhoneDirective&#45;&gt;ThemeModule</title>
<path fill="none" stroke="black" d="M317.42,-122.03C317.42,-139.06 317.42,-162 317.42,-162 317.42,-162 515.64,-162 515.64,-162"/>
<polygon fill="black" stroke="black" points="515.64,-165.5 525.64,-162 515.64,-158.5 515.64,-165.5"/>
</g>
<!-- VisitorLayoutComponent -->
<g id="node8" class="node">
<title>VisitorLayoutComponent</title>
<polygon fill="#ffffb3" stroke="black" points="201.87,-122 42.13,-122 42.13,-86 201.87,-86 201.87,-122"/>
<text text-anchor="middle" x="122" y="-99.8" font-family="Times,serif" font-size="14.00">VisitorLayoutComponent</text>
</g>
<!-- VisitorLayoutComponent&#45;&gt;ThemeModule -->
<g id="edge8" class="edge">
<title>VisitorLayoutComponent&#45;&gt;ThemeModule</title>
<path fill="none" stroke="black" d="M194.81,-122.22C194.81,-140.83 194.81,-167 194.81,-167 194.81,-167 515.69,-167 515.69,-167"/>
<polygon fill="black" stroke="black" points="515.69,-170.5 525.69,-167 515.69,-163.5 515.69,-170.5"/>
</g>
<!-- DashboardLayoutComponent  -->
<g id="node10" class="node">
<title>DashboardLayoutComponent </title>
<polygon fill="#fb8072" stroke="black" points="1351.63,-252 1166.37,-252 1166.37,-216 1351.63,-216 1351.63,-252"/>
<text text-anchor="middle" x="1259" y="-229.8" font-family="Times,serif" font-size="14.00">DashboardLayoutComponent </text>
</g>
<!-- ThemeModule&#45;&gt;DashboardLayoutComponent  -->
<g id="edge9" class="edge">
<title>ThemeModule&#45;&gt;DashboardLayoutComponent </title>
<path fill="none" stroke="black" stroke-dasharray="5,2" d="M624.35,-171C780.51,-171 1253.62,-171 1253.62,-171 1253.62,-171 1253.62,-205.78 1253.62,-205.78"/>
<polygon fill="black" stroke="black" points="1250.13,-205.78 1253.62,-215.78 1257.13,-205.78 1250.13,-205.78"/>
</g>
<!-- FooterComponent  -->
<g id="node11" class="node">
<title>FooterComponent </title>
<polygon fill="#fb8072" stroke="black" points="1148.88,-252 1027.12,-252 1027.12,-216 1148.88,-216 1148.88,-252"/>
<text text-anchor="middle" x="1088" y="-229.8" font-family="Times,serif" font-size="14.00">FooterComponent </text>
</g>
<!-- ThemeModule&#45;&gt;FooterComponent  -->
<g id="edge10" class="edge">
<title>ThemeModule&#45;&gt;FooterComponent </title>
<path fill="none" stroke="black" stroke-dasharray="5,2" d="M624.25,-175C748.55,-175 1065.19,-175 1065.19,-175 1065.19,-175 1065.19,-205.98 1065.19,-205.98"/>
<polygon fill="black" stroke="black" points="1061.69,-205.98 1065.19,-215.98 1068.69,-205.98 1061.69,-205.98"/>
</g>
<!-- HeaderDashboardComponent  -->
<g id="node12" class="node">
<title>HeaderDashboardComponent </title>
<polygon fill="#fb8072" stroke="black" points="1008.88,-252 823.12,-252 823.12,-216 1008.88,-216 1008.88,-252"/>
<text text-anchor="middle" x="916" y="-229.8" font-family="Times,serif" font-size="14.00">HeaderDashboardComponent </text>
</g>
<!-- ThemeModule&#45;&gt;HeaderDashboardComponent  -->
<g id="edge11" class="edge">
<title>ThemeModule&#45;&gt;HeaderDashboardComponent </title>
<path fill="none" stroke="black" stroke-dasharray="5,2" d="M624.27,-179C711.44,-179 883.77,-179 883.77,-179 883.77,-179 883.77,-205.99 883.77,-205.99"/>
<polygon fill="black" stroke="black" points="880.27,-205.99 883.77,-215.99 887.27,-205.99 880.27,-205.99"/>
</g>
<!-- HeaderVisitorComponent  -->
<g id="node13" class="node">
<title>HeaderVisitorComponent </title>
<polygon fill="#fb8072" stroke="black" points="805.13,-252 640.87,-252 640.87,-216 805.13,-216 805.13,-252"/>
<text text-anchor="middle" x="723" y="-229.8" font-family="Times,serif" font-size="14.00">HeaderVisitorComponent </text>
</g>
<!-- ThemeModule&#45;&gt;HeaderVisitorComponent  -->
<g id="edge12" class="edge">
<title>ThemeModule&#45;&gt;HeaderVisitorComponent </title>
<path fill="none" stroke="black" stroke-dasharray="5,2" d="M624.43,-183C676.42,-183 750.77,-183 750.77,-183 750.77,-183 750.77,-205.88 750.77,-205.88"/>
<polygon fill="black" stroke="black" points="747.27,-205.88 750.77,-215.88 754.27,-205.88 747.27,-205.88"/>
</g>
<!-- MenuComponent  -->
<g id="node14" class="node">
<title>MenuComponent </title>
<polygon fill="#fb8072" stroke="black" points="622.99,-252 505.01,-252 505.01,-216 622.99,-216 622.99,-252"/>
<text text-anchor="middle" x="564" y="-229.8" font-family="Times,serif" font-size="14.00">MenuComponent </text>
</g>
<!-- ThemeModule&#45;&gt;MenuComponent  -->
<g id="edge13" class="edge">
<title>ThemeModule&#45;&gt;MenuComponent </title>
<path fill="none" stroke="black" stroke-dasharray="5,2" d="M574.27,-187.11C574.27,-187.11 574.27,-205.99 574.27,-205.99"/>
<polygon fill="black" stroke="black" points="570.77,-205.99 574.27,-215.99 577.77,-205.99 570.77,-205.99"/>
</g>
<!-- MenuLateralComponent  -->
<g id="node15" class="node">
<title>MenuLateralComponent </title>
<polygon fill="#fb8072" stroke="black" points="487.63,-252 330.37,-252 330.37,-216 487.63,-216 487.63,-252"/>
<text text-anchor="middle" x="409" y="-229.8" font-family="Times,serif" font-size="14.00">MenuLateralComponent </text>
</g>
<!-- ThemeModule&#45;&gt;MenuLateralComponent  -->
<g id="edge14" class="edge">
<title>ThemeModule&#45;&gt;MenuLateralComponent </title>
<path fill="none" stroke="black" stroke-dasharray="5,2" d="M525.73,-182C470.72,-182 389.31,-182 389.31,-182 389.31,-182 389.31,-205.81 389.31,-205.81"/>
<polygon fill="black" stroke="black" points="385.81,-205.81 389.31,-215.81 392.81,-205.81 385.81,-205.81"/>
</g>
<!-- PhoneDirective  -->
<g id="node16" class="node">
<title>PhoneDirective </title>
<polygon fill="#fb8072" stroke="black" points="312.08,-252 205.92,-252 205.92,-216 312.08,-216 312.08,-252"/>
<text text-anchor="middle" x="259" y="-229.8" font-family="Times,serif" font-size="14.00">PhoneDirective </text>
</g>
<!-- ThemeModule&#45;&gt;PhoneDirective  -->
<g id="edge15" class="edge">
<title>ThemeModule&#45;&gt;PhoneDirective </title>
<path fill="none" stroke="black" stroke-dasharray="5,2" d="M525.68,-177C438.4,-177 265.88,-177 265.88,-177 265.88,-177 265.88,-205.96 265.88,-205.96"/>
<polygon fill="black" stroke="black" points="262.38,-205.96 265.88,-215.96 269.38,-205.96 262.38,-205.96"/>
</g>
<!-- VisitorLayoutComponent  -->
<g id="node17" class="node">
<title>VisitorLayoutComponent </title>
<polygon fill="#fb8072" stroke="black" points="187.87,-252 24.13,-252 24.13,-216 187.87,-216 187.87,-252"/>
<text text-anchor="middle" x="106" y="-229.8" font-family="Times,serif" font-size="14.00">VisitorLayoutComponent </text>
</g>
<!-- ThemeModule&#45;&gt;VisitorLayoutComponent  -->
<g id="edge16" class="edge">
<title>ThemeModule&#45;&gt;VisitorLayoutComponent </title>
<path fill="none" stroke="black" stroke-dasharray="5,2" d="M525.76,-172C407.06,-172 114.88,-172 114.88,-172 114.88,-172 114.88,-205.73 114.88,-205.73"/>
<polygon fill="black" stroke="black" points="111.38,-205.73 114.88,-215.73 118.38,-205.73 111.38,-205.73"/>
</g>
</g>
</svg>
