<?xml version="1.0" encoding="UTF-8" standalone="no"?>
<!DOCTYPE svg PUBLIC "-//W3C//DTD SVG 1.1//EN"
 "http://www.w3.org/Graphics/SVG/1.1/DTD/svg11.dtd">
<!-- Generated by graphviz version 2.47.0 (20210316.0004)
 -->
<!-- Title: dependencies Pages: 1 -->
<svg width="594pt" height="211pt"
 viewBox="0.00 0.00 594.00 211.00" xmlns="http://www.w3.org/2000/svg" xmlns:xlink="http://www.w3.org/1999/xlink">
<g id="graph0" class="graph" transform="scale(1 1) rotate(0) translate(4 207)">
<title>dependencies</title>
<polygon fill="white" stroke="transparent" points="-4,4 -4,-207 590,-207 590,4 -4,4"/>
<text text-anchor="start" x="272.01" y="-42.4" font-family="sans-serif" font-weight="bold" font-size="14.00">Legend</text>
<polygon fill="#ffffb3" stroke="transparent" points="59,-10 59,-30 79,-30 79,-10 59,-10"/>
<text text-anchor="start" x="82.63" y="-15.4" font-family="sans-serif" font-size="14.00"> &#160;Declarations</text>
<polygon fill="#8dd3c7" stroke="transparent" points="172,-10 172,-30 192,-30 192,-10 172,-10"/>
<text text-anchor="start" x="195.73" y="-15.4" font-family="sans-serif" font-size="14.00"> &#160;Module</text>
<polygon fill="#80b1d3" stroke="transparent" points="258,-10 258,-30 278,-30 278,-10 258,-10"/>
<text text-anchor="start" x="281.78" y="-15.4" font-family="sans-serif" font-size="14.00"> &#160;Bootstrap</text>
<polygon fill="#fdb462" stroke="transparent" points="355,-10 355,-30 375,-30 375,-10 355,-10"/>
<text text-anchor="start" x="378.67" y="-15.4" font-family="sans-serif" font-size="14.00"> &#160;Providers</text>
<polygon fill="#fb8072" stroke="transparent" points="451,-10 451,-30 471,-30 471,-10 451,-10"/>
<text text-anchor="start" x="474.73" y="-15.4" font-family="sans-serif" font-size="14.00"> &#160;Exports</text>
<g id="clust1" class="cluster">
<title>cluster_VisitorModule</title>
<polygon fill="none" stroke="black" stroke-dasharray="1,5" points="8,-70 8,-195 578,-195 578,-70 8,-70"/>
</g>
<g id="clust5" class="cluster">
<title>cluster_VisitorModule_imports</title>
<polygon fill="none" stroke="black" points="294,-78 294,-130 570,-130 570,-78 294,-78"/>
</g>
<g id="clust2" class="cluster">
<title>cluster_VisitorModule_declarations</title>
<polygon fill="none" stroke="black" points="16,-78 16,-130 286,-130 286,-78 16,-78"/>
</g>
<!-- HomeComponent -->
<g id="node1" class="node">
<title>HomeComponent</title>
<polygon fill="#ffffb3" stroke="black" points="277.55,-122 162.45,-122 162.45,-86 277.55,-86 277.55,-122"/>
<text text-anchor="middle" x="220" y="-99.8" font-family="Times,serif" font-size="14.00">HomeComponent</text>
</g>
<!-- VisitorModule -->
<g id="node3" class="node">
<title>VisitorModule</title>
<polygon fill="#8dd3c7" stroke="black" points="346.43,-187 343.43,-191 322.43,-191 319.43,-187 247.57,-187 247.57,-151 346.43,-151 346.43,-187"/>
<text text-anchor="middle" x="297" y="-164.8" font-family="Times,serif" font-size="14.00">VisitorModule</text>
</g>
<!-- HomeComponent&#45;&gt;VisitorModule -->
<g id="edge1" class="edge">
<title>HomeComponent&#45;&gt;VisitorModule</title>
<path fill="none" stroke="black" d="M262.78,-122.11C262.78,-122.11 262.78,-140.99 262.78,-140.99"/>
<polygon fill="black" stroke="black" points="259.28,-140.99 262.78,-150.99 266.28,-140.99 259.28,-140.99"/>
</g>
<!-- VisitorComponent -->
<g id="node2" class="node">
<title>VisitorComponent</title>
<polygon fill="#ffffb3" stroke="black" points="144.22,-122 23.78,-122 23.78,-86 144.22,-86 144.22,-122"/>
<text text-anchor="middle" x="84" y="-99.8" font-family="Times,serif" font-size="14.00">VisitorComponent</text>
</g>
<!-- VisitorComponent&#45;&gt;VisitorModule -->
<g id="edge2" class="edge">
<title>VisitorComponent&#45;&gt;VisitorModule</title>
<path fill="none" stroke="black" d="M84,-122.11C84,-141.34 84,-169 84,-169 84,-169 237.6,-169 237.6,-169"/>
<polygon fill="black" stroke="black" points="237.6,-172.5 247.6,-169 237.6,-165.5 237.6,-172.5"/>
</g>
<!-- ThemeModule -->
<g id="node4" class="node">
<title>ThemeModule</title>
<polygon fill="#8dd3c7" stroke="black" points="562.42,-122 559.42,-126 538.42,-126 535.42,-122 463.58,-122 463.58,-86 562.42,-86 562.42,-122"/>
<text text-anchor="middle" x="513" y="-99.8" font-family="Times,serif" font-size="14.00">ThemeModule</text>
</g>
<!-- ThemeModule&#45;&gt;VisitorModule -->
<g id="edge3" class="edge">
<title>ThemeModule&#45;&gt;VisitorModule</title>
<path fill="none" stroke="black" d="M513,-122.11C513,-141.34 513,-169 513,-169 513,-169 356.28,-169 356.28,-169"/>
<polygon fill="black" stroke="black" points="356.28,-165.5 346.28,-169 356.28,-172.5 356.28,-165.5"/>
</g>
<!-- VisitorRoutingModule -->
<g id="node5" class="node">
<title>VisitorRoutingModule</title>
<polygon fill="#8dd3c7" stroke="black" points="445.55,-122 442.55,-126 421.55,-126 418.55,-122 302.45,-122 302.45,-86 445.55,-86 445.55,-122"/>
<text text-anchor="middle" x="374" y="-99.8" font-family="Times,serif" font-size="14.00">VisitorRoutingModule</text>
</g>
<!-- VisitorRoutingModule&#45;&gt;VisitorModule -->
<g id="edge4" class="edge">
<title>VisitorRoutingModule&#45;&gt;VisitorModule</title>
<path fill="none" stroke="black" d="M324.22,-122.11C324.22,-122.11 324.22,-140.99 324.22,-140.99"/>
<polygon fill="black" stroke="black" points="320.72,-140.99 324.22,-150.99 327.72,-140.99 320.72,-140.99"/>
</g>
</g>
</svg>
