<?xml version="1.0" encoding="UTF-8" standalone="no"?>
<!DOCTYPE svg PUBLIC "-//W3C//DTD SVG 1.1//EN"
 "http://www.w3.org/Graphics/SVG/1.1/DTD/svg11.dtd">
<!-- Generated by graphviz version 2.47.0 (20210316.0004)
 -->
<!-- Title: dependencies Pages: 1 -->
<svg width="1745pt" height="211pt"
 viewBox="0.00 0.00 1745.00 211.00" xmlns="http://www.w3.org/2000/svg" xmlns:xlink="http://www.w3.org/1999/xlink">
<g id="graph0" class="graph" transform="scale(1 1) rotate(0) translate(4 207)">
<title>dependencies</title>
<polygon fill="white" stroke="transparent" points="-4,4 -4,-207 1741,-207 1741,4 -4,4"/>
<text text-anchor="start" x="847.51" y="-42.4" font-family="sans-serif" font-weight="bold" font-size="14.00">Legend</text>
<polygon fill="#ffffb3" stroke="transparent" points="634.5,-10 634.5,-30 654.5,-30 654.5,-10 634.5,-10"/>
<text text-anchor="start" x="658.13" y="-15.4" font-family="sans-serif" font-size="14.00"> &#160;Declarations</text>
<polygon fill="#8dd3c7" stroke="transparent" points="747.5,-10 747.5,-30 767.5,-30 767.5,-10 747.5,-10"/>
<text text-anchor="start" x="771.23" y="-15.4" font-family="sans-serif" font-size="14.00"> &#160;Module</text>
<polygon fill="#80b1d3" stroke="transparent" points="833.5,-10 833.5,-30 853.5,-30 853.5,-10 833.5,-10"/>
<text text-anchor="start" x="857.28" y="-15.4" font-family="sans-serif" font-size="14.00"> &#160;Bootstrap</text>
<polygon fill="#fdb462" stroke="transparent" points="930.5,-10 930.5,-30 950.5,-30 950.5,-10 930.5,-10"/>
<text text-anchor="start" x="954.17" y="-15.4" font-family="sans-serif" font-size="14.00"> &#160;Providers</text>
<polygon fill="#fb8072" stroke="transparent" points="1026.5,-10 1026.5,-30 1046.5,-30 1046.5,-10 1026.5,-10"/>
<text text-anchor="start" x="1050.23" y="-15.4" font-family="sans-serif" font-size="14.00"> &#160;Exports</text>
<g id="clust1" class="cluster">
<title>cluster_DashboardModule</title>
<polygon fill="none" stroke="black" stroke-dasharray="1,5" points="8,-70 8,-195 1729,-195 1729,-70 8,-70"/>
</g>
<g id="clust10" class="cluster">
<title>cluster_DashboardModule_imports</title>
<polygon fill="none" stroke="black" points="1431,-78 1431,-130 1721,-130 1721,-78 1431,-78"/>
</g>
<g id="clust2" class="cluster">
<title>cluster_DashboardModule_declarations</title>
<polygon fill="none" stroke="black" points="16,-78 16,-130 1423,-130 1423,-78 16,-78"/>
</g>
<!-- BoxDialogEditListUsersComponent -->
<g id="node1" class="node">
<title>BoxDialogEditListUsersComponent</title>
<polygon fill="#ffffb3" stroke="black" points="1414.75,-122 1195.25,-122 1195.25,-86 1414.75,-86 1414.75,-122"/>
<text text-anchor="middle" x="1305" y="-99.8" font-family="Times,serif" font-size="14.00">BoxDialogEditListUsersComponent</text>
</g>
<!-- DashboardModule -->
<g id="node8" class="node">
<title>DashboardModule</title>
<polygon fill="#8dd3c7" stroke="black" points="903.19,-187 900.19,-191 879.19,-191 876.19,-187 782.81,-187 782.81,-151 903.19,-151 903.19,-187"/>
<text text-anchor="middle" x="843" y="-164.8" font-family="Times,serif" font-size="14.00">DashboardModule</text>
</g>
<!-- BoxDialogEditListUsersComponent&#45;&gt;DashboardModule -->
<g id="edge1" class="edge">
<title>BoxDialogEditListUsersComponent&#45;&gt;DashboardModule</title>
<path fill="none" stroke="black" d="M1305,-122.27C1305,-140.56 1305,-166 1305,-166 1305,-166 913.4,-166 913.4,-166"/>
<polygon fill="black" stroke="black" points="913.4,-162.5 903.4,-166 913.4,-169.5 913.4,-162.5"/>
</g>
<!-- BoxDialogEditTypeComponent -->
<g id="node2" class="node">
<title>BoxDialogEditTypeComponent</title>
<polygon fill="#ffffb3" stroke="black" points="1177.37,-122 982.63,-122 982.63,-86 1177.37,-86 1177.37,-122"/>
<text text-anchor="middle" x="1080" y="-99.8" font-family="Times,serif" font-size="14.00">BoxDialogEditTypeComponent</text>
</g>
<!-- BoxDialogEditTypeComponent&#45;&gt;DashboardModule -->
<g id="edge2" class="edge">
<title>BoxDialogEditTypeComponent&#45;&gt;DashboardModule</title>
<path fill="none" stroke="black" d="M1080,-122.01C1080,-138.05 1080,-159 1080,-159 1080,-159 913.11,-159 913.11,-159"/>
<polygon fill="black" stroke="black" points="913.11,-155.5 903.11,-159 913.11,-162.5 913.11,-155.5"/>
</g>
<!-- BoxDialogExcludeListUsersComponent -->
<g id="node3" class="node">
<title>BoxDialogExcludeListUsersComponent</title>
<polygon fill="#ffffb3" stroke="black" points="964.29,-122 721.71,-122 721.71,-86 964.29,-86 964.29,-122"/>
<text text-anchor="middle" x="843" y="-99.8" font-family="Times,serif" font-size="14.00">BoxDialogExcludeListUsersComponent</text>
</g>
<!-- BoxDialogExcludeListUsersComponent&#45;&gt;DashboardModule -->
<g id="edge3" class="edge">
<title>BoxDialogExcludeListUsersComponent&#45;&gt;DashboardModule</title>
<path fill="none" stroke="black" d="M843,-122.11C843,-122.11 843,-140.99 843,-140.99"/>
<polygon fill="black" stroke="black" points="839.5,-140.99 843,-150.99 846.5,-140.99 839.5,-140.99"/>
</g>
<!-- BoxSialogDeleteTypesComponent -->
<g id="node4" class="node">
<title>BoxSialogDeleteTypesComponent</title>
<polygon fill="#ffffb3" stroke="black" points="703.69,-122 492.31,-122 492.31,-86 703.69,-86 703.69,-122"/>
<text text-anchor="middle" x="598" y="-99.8" font-family="Times,serif" font-size="14.00">BoxSialogDeleteTypesComponent</text>
</g>
<!-- BoxSialogDeleteTypesComponent&#45;&gt;DashboardModule -->
<g id="edge4" class="edge">
<title>BoxSialogDeleteTypesComponent&#45;&gt;DashboardModule</title>
<path fill="none" stroke="black" d="M598,-122.01C598,-138.05 598,-159 598,-159 598,-159 772.75,-159 772.75,-159"/>
<polygon fill="black" stroke="black" points="772.75,-162.5 782.75,-159 772.75,-155.5 772.75,-162.5"/>
</g>
<!-- DashboardComponent -->
<g id="node5" class="node">
<title>DashboardComponent</title>
<polygon fill="#ffffb3" stroke="black" points="473.97,-122 332.03,-122 332.03,-86 473.97,-86 473.97,-122"/>
<text text-anchor="middle" x="403" y="-99.8" font-family="Times,serif" font-size="14.00">DashboardComponent</text>
</g>
<!-- DashboardComponent&#45;&gt;DashboardModule -->
<g id="edge5" class="edge">
<title>DashboardComponent&#45;&gt;DashboardModule</title>
<path fill="none" stroke="black" d="M403,-122.27C403,-140.56 403,-166 403,-166 403,-166 772.74,-166 772.74,-166"/>
<polygon fill="black" stroke="black" points="772.74,-169.5 782.74,-166 772.74,-162.5 772.74,-169.5"/>
</g>
<!-- ListTypesComponent -->
<g id="node6" class="node">
<title>ListTypesComponent</title>
<polygon fill="#ffffb3" stroke="black" points="313.82,-122 176.18,-122 176.18,-86 313.82,-86 313.82,-122"/>
<text text-anchor="middle" x="245" y="-99.8" font-family="Times,serif" font-size="14.00">ListTypesComponent</text>
</g>
<!-- ListTypesComponent&#45;&gt;DashboardModule -->
<g id="edge6" class="edge">
<title>ListTypesComponent&#45;&gt;DashboardModule</title>
<path fill="none" stroke="black" d="M245,-122.13C245,-142.57 245,-173 245,-173 245,-173 772.65,-173 772.65,-173"/>
<polygon fill="black" stroke="black" points="772.65,-176.5 782.65,-173 772.65,-169.5 772.65,-176.5"/>
</g>
<!-- ListUsersComponent -->
<g id="node7" class="node">
<title>ListUsersComponent</title>
<polygon fill="#ffffb3" stroke="black" points="158.48,-122 23.52,-122 23.52,-86 158.48,-86 158.48,-122"/>
<text text-anchor="middle" x="91" y="-99.8" font-family="Times,serif" font-size="14.00">ListUsersComponent</text>
</g>
<!-- ListUsersComponent&#45;&gt;DashboardModule -->
<g id="edge7" class="edge">
<title>ListUsersComponent&#45;&gt;DashboardModule</title>
<path fill="none" stroke="black" d="M91,-122.01C91,-144.49 91,-180 91,-180 91,-180 772.73,-180 772.73,-180"/>
<polygon fill="black" stroke="black" points="772.73,-183.5 782.73,-180 772.73,-176.5 772.73,-183.5"/>
</g>
<!-- DashboardRouterModule -->
<g id="node9" class="node">
<title>DashboardRouterModule</title>
<polygon fill="#8dd3c7" stroke="black" points="1713.29,-122 1710.29,-126 1689.29,-126 1686.29,-122 1554.71,-122 1554.71,-86 1713.29,-86 1713.29,-122"/>
<text text-anchor="middle" x="1634" y="-99.8" font-family="Times,serif" font-size="14.00">DashboardRouterModule</text>
</g>
<!-- DashboardRouterModule&#45;&gt;DashboardModule -->
<g id="edge8" class="edge">
<title>DashboardRouterModule&#45;&gt;DashboardModule</title>
<path fill="none" stroke="black" d="M1634,-122.01C1634,-144.49 1634,-180 1634,-180 1634,-180 913.1,-180 913.1,-180"/>
<polygon fill="black" stroke="black" points="913.1,-176.5 903.1,-180 913.1,-183.5 913.1,-176.5"/>
</g>
<!-- ThemeModule -->
<g id="node10" class="node">
<title>ThemeModule</title>
<polygon fill="#8dd3c7" stroke="black" points="1537.42,-122 1534.42,-126 1513.42,-126 1510.42,-122 1438.58,-122 1438.58,-86 1537.42,-86 1537.42,-122"/>
<text text-anchor="middle" x="1488" y="-99.8" font-family="Times,serif" font-size="14.00">ThemeModule</text>
</g>
<!-- ThemeModule&#45;&gt;DashboardModule -->
<g id="edge9" class="edge">
<title>ThemeModule&#45;&gt;DashboardModule</title>
<path fill="none" stroke="black" d="M1488,-122.13C1488,-142.57 1488,-173 1488,-173 1488,-173 913.1,-173 913.1,-173"/>
<polygon fill="black" stroke="black" points="913.1,-169.5 903.1,-173 913.1,-176.5 913.1,-169.5"/>
</g>
</g>
</svg>
