<?xml version="1.0" encoding="UTF-8" standalone="no"?>
<!DOCTYPE svg PUBLIC "-//W3C//DTD SVG 1.1//EN"
 "http://www.w3.org/Graphics/SVG/1.1/DTD/svg11.dtd">
<!-- Generated by graphviz version 2.47.0 (20210316.0004)
 -->
<!-- Title: dependencies Pages: 1 -->
<svg width="878pt" height="211pt"
 viewBox="0.00 0.00 878.00 211.00" xmlns="http://www.w3.org/2000/svg" xmlns:xlink="http://www.w3.org/1999/xlink">
<g id="graph0" class="graph" transform="scale(1 1) rotate(0) translate(4 207)">
<title>dependencies</title>
<polygon fill="white" stroke="transparent" points="-4,4 -4,-207 874,-207 874,4 -4,4"/>
<text text-anchor="start" x="414.01" y="-42.4" font-family="sans-serif" font-weight="bold" font-size="14.00">Legend</text>
<polygon fill="#ffffb3" stroke="transparent" points="201,-10 201,-30 221,-30 221,-10 201,-10"/>
<text text-anchor="start" x="224.63" y="-15.4" font-family="sans-serif" font-size="14.00"> &#160;Declarations</text>
<polygon fill="#8dd3c7" stroke="transparent" points="314,-10 314,-30 334,-30 334,-10 314,-10"/>
<text text-anchor="start" x="337.73" y="-15.4" font-family="sans-serif" font-size="14.00"> &#160;Module</text>
<polygon fill="#80b1d3" stroke="transparent" points="400,-10 400,-30 420,-30 420,-10 400,-10"/>
<text text-anchor="start" x="423.78" y="-15.4" font-family="sans-serif" font-size="14.00"> &#160;Bootstrap</text>
<polygon fill="#fdb462" stroke="transparent" points="497,-10 497,-30 517,-30 517,-10 497,-10"/>
<text text-anchor="start" x="520.67" y="-15.4" font-family="sans-serif" font-size="14.00"> &#160;Providers</text>
<polygon fill="#fb8072" stroke="transparent" points="593,-10 593,-30 613,-30 613,-10 593,-10"/>
<text text-anchor="start" x="616.73" y="-15.4" font-family="sans-serif" font-size="14.00"> &#160;Exports</text>
<g id="clust1" class="cluster">
<title>cluster_AuthModule</title>
<polygon fill="none" stroke="black" stroke-dasharray="1,5" points="8,-70 8,-195 862,-195 862,-70 8,-70"/>
</g>
<g id="clust9" class="cluster">
<title>cluster_AuthModule_providers</title>
<polygon fill="none" stroke="black" points="704,-78 704,-130 854,-130 854,-78 704,-78"/>
</g>
<g id="clust6" class="cluster">
<title>cluster_AuthModule_imports</title>
<polygon fill="none" stroke="black" points="431,-78 431,-130 696,-130 696,-78 431,-78"/>
</g>
<g id="clust2" class="cluster">
<title>cluster_AuthModule_declarations</title>
<polygon fill="none" stroke="black" points="16,-78 16,-130 423,-130 423,-78 16,-78"/>
</g>
<!-- AuthComponent -->
<g id="node1" class="node">
<title>AuthComponent</title>
<polygon fill="#ffffb3" stroke="black" points="414.83,-122 305.17,-122 305.17,-86 414.83,-86 414.83,-122"/>
<text text-anchor="middle" x="360" y="-99.8" font-family="Times,serif" font-size="14.00">AuthComponent</text>
</g>
<!-- AuthModule -->
<g id="node4" class="node">
<title>AuthModule</title>
<polygon fill="#8dd3c7" stroke="black" points="467.55,-187 464.55,-191 443.55,-191 440.55,-187 380.45,-187 380.45,-151 467.55,-151 467.55,-187"/>
<text text-anchor="middle" x="424" y="-164.8" font-family="Times,serif" font-size="14.00">AuthModule</text>
</g>
<!-- AuthComponent&#45;&gt;AuthModule -->
<g id="edge1" class="edge">
<title>AuthComponent&#45;&gt;AuthModule</title>
<path fill="none" stroke="black" d="M397.45,-122.11C397.45,-122.11 397.45,-140.99 397.45,-140.99"/>
<polygon fill="black" stroke="black" points="393.95,-140.99 397.45,-150.99 400.95,-140.99 393.95,-140.99"/>
</g>
<!-- CadastroComponent -->
<g id="node2" class="node">
<title>CadastroComponent</title>
<polygon fill="#ffffb3" stroke="black" points="287.59,-122 156.41,-122 156.41,-86 287.59,-86 287.59,-122"/>
<text text-anchor="middle" x="222" y="-99.8" font-family="Times,serif" font-size="14.00">CadastroComponent</text>
</g>
<!-- CadastroComponent&#45;&gt;AuthModule -->
<g id="edge2" class="edge">
<title>CadastroComponent&#45;&gt;AuthModule</title>
<path fill="none" stroke="black" d="M222,-122.02C222,-139.37 222,-163 222,-163 222,-163 370.17,-163 370.17,-163"/>
<polygon fill="black" stroke="black" points="370.17,-166.5 380.17,-163 370.17,-159.5 370.17,-166.5"/>
</g>
<!-- LoginComponent -->
<g id="node3" class="node">
<title>LoginComponent</title>
<polygon fill="#ffffb3" stroke="black" points="138.28,-122 23.72,-122 23.72,-86 138.28,-86 138.28,-122"/>
<text text-anchor="middle" x="81" y="-99.8" font-family="Times,serif" font-size="14.00">LoginComponent</text>
</g>
<!-- LoginComponent&#45;&gt;AuthModule -->
<g id="edge3" class="edge">
<title>LoginComponent&#45;&gt;AuthModule</title>
<path fill="none" stroke="black" d="M81,-122.28C81,-143.32 81,-175 81,-175 81,-175 370.21,-175 370.21,-175"/>
<polygon fill="black" stroke="black" points="370.21,-178.5 380.21,-175 370.21,-171.5 370.21,-178.5"/>
</g>
<!-- AuthRoutingModule -->
<g id="node5" class="node">
<title>AuthRoutingModule</title>
<polygon fill="#8dd3c7" stroke="black" points="688.17,-122 685.17,-126 664.17,-126 661.17,-122 555.83,-122 555.83,-86 688.17,-86 688.17,-122"/>
<text text-anchor="middle" x="622" y="-99.8" font-family="Times,serif" font-size="14.00">AuthRoutingModule</text>
</g>
<!-- AuthRoutingModule&#45;&gt;AuthModule -->
<g id="edge4" class="edge">
<title>AuthRoutingModule&#45;&gt;AuthModule</title>
<path fill="none" stroke="black" d="M622,-122.02C622,-139.37 622,-163 622,-163 622,-163 477.94,-163 477.94,-163"/>
<polygon fill="black" stroke="black" points="477.94,-159.5 467.94,-163 477.94,-166.5 477.94,-159.5"/>
</g>
<!-- ThemeModule -->
<g id="node6" class="node">
<title>ThemeModule</title>
<polygon fill="#8dd3c7" stroke="black" points="537.42,-122 534.42,-126 513.42,-126 510.42,-122 438.58,-122 438.58,-86 537.42,-86 537.42,-122"/>
<text text-anchor="middle" x="488" y="-99.8" font-family="Times,serif" font-size="14.00">ThemeModule</text>
</g>
<!-- ThemeModule&#45;&gt;AuthModule -->
<g id="edge5" class="edge">
<title>ThemeModule&#45;&gt;AuthModule</title>
<path fill="none" stroke="black" d="M453.28,-122.11C453.28,-122.11 453.28,-140.99 453.28,-140.99"/>
<polygon fill="black" stroke="black" points="449.78,-140.99 453.28,-150.99 456.78,-140.99 449.78,-140.99"/>
</g>
<!-- SignupService -->
<g id="node7" class="node">
<title>SignupService</title>
<ellipse fill="#fdb462" stroke="black" cx="779" cy="-104" rx="67.22" ry="18"/>
<text text-anchor="middle" x="779" y="-99.8" font-family="Times,serif" font-size="14.00">SignupService</text>
</g>
<!-- SignupService&#45;&gt;AuthModule -->
<g id="edge6" class="edge">
<title>SignupService&#45;&gt;AuthModule</title>
<path fill="none" stroke="black" d="M779,-122.28C779,-143.32 779,-175 779,-175 779,-175 477.89,-175 477.89,-175"/>
<polygon fill="black" stroke="black" points="477.89,-171.5 467.89,-175 477.89,-178.5 477.89,-171.5"/>
</g>
</g>
</svg>
